<svg width="34" height="32" viewBox="0 0 34 32" fill="none" xmlns="http://www.w3.org/2000/svg">
<path d="M30.3571 0H29.1429C28.7786 0 28.5357 0.226667 28.5357 0.566667V2.83333C28.5357 5.32667 26.35 7.36667 23.6786 7.36667H10.3214C7.65 7.36667 5.46429 5.32667 5.46429 2.83333V0.566667C5.46429 0.226667 5.22143 0 4.85714 0H3.64286C1.63929 0 0 1.53 0 3.4V27.7667C0 29.6367 1.63929 31.1667 3.64286 31.1667H30.3571C32.3607 31.1667 34 29.6367 34 27.7667V3.4C34 1.53 32.3607 0 30.3571 0ZM27.2 13.6L15.5429 24.48C15.2393 24.7633 14.875 24.9333 14.45 24.9333C14.025 24.9333 13.6 24.7633 13.2964 24.48L6.8 18.4167C6.49643 18.1333 6.49643 17.7933 6.8 17.51L8.075 16.32C8.37857 16.0367 8.74286 16.0367 9.04643 16.32L14.3893 21.3067L24.8929 11.5033C25.1964 11.22 25.5607 11.22 25.8643 11.5033L27.1393 12.6933C27.4429 12.9767 27.4429 13.3733 27.2 13.6Z" fill="#7C8EA6"/>
</svg>
