<svg width="42" height="32" viewBox="0 0 42 32" fill="none" xmlns="http://www.w3.org/2000/svg">
<path id="Vector" d="M38.7692 5.81819H21.6684L16.1538 0.852737C15.8548 0.581591 15.4989 0.366596 15.1069 0.220218C14.7149 0.07384 14.2945 -0.00100924 13.8701 1.02764e-05H3.23077C2.37392 1.02764e-05 1.55216 0.306503 0.94627 0.852063C0.340383 1.39762 0 2.13756 0 2.9091V29.2036C0.00160251 29.9451 0.329588 30.6559 0.912086 31.18C1.49458 31.7042 2.28409 31.999 3.1076 32H38.9489C39.7578 31.999 40.5332 31.7093 41.1052 31.1943C41.6771 30.6793 41.9989 29.9811 42 29.2527V8.72728C42 7.95574 41.6596 7.2158 41.0537 6.67024C40.4478 6.12468 39.6261 5.81819 38.7692 5.81819ZM3.23077 2.9091H13.8701L17.1009 5.81819H3.23077V2.9091Z" fill="#7C8EA6"/>
</svg>
