<svg width="42" height="42" viewBox="0 0 42 42" fill="none" xmlns="http://www.w3.org/2000/svg">
<g id="material-symbols:history">
<path id="Vector" d="M21 36.75C16.975 36.75 13.4674 35.4153 10.4772 32.746C7.48708 30.0767 5.77383 26.7447 5.3375 22.75H8.925C9.33333 25.7833 10.6826 28.2917 12.9727 30.275C15.2629 32.2583 17.9387 33.25 21 33.25C24.4125 33.25 27.3076 32.0612 29.6852 29.6835C32.0629 27.3058 33.2512 24.4113 33.25 21C33.25 17.5875 32.0612 14.6924 29.6835 12.3147C27.3058 9.93708 24.4113 8.74883 21 8.75C18.9875 8.75 17.1062 9.21667 15.3562 10.15C13.6062 11.0833 12.1333 12.3667 10.9375 14H15.75V17.5H5.25V7H8.75V11.1125C10.2375 9.24583 12.0534 7.80208 14.1977 6.78125C16.3421 5.76042 18.6095 5.25 21 5.25C23.1875 5.25 25.2367 5.66592 27.1477 6.49775C29.0587 7.32958 30.7213 8.45192 32.1353 9.86475C33.5492 11.2799 34.6722 12.9424 35.504 14.8523C36.3358 16.7621 36.7512 18.8113 36.75 21C36.75 23.1875 36.3341 25.2367 35.5022 27.1477C34.6704 29.0587 33.5481 30.7213 32.1353 32.1353C30.7201 33.5492 29.0576 34.6722 27.1477 35.504C25.2379 36.3358 23.1887 36.7512 21 36.75ZM25.9 28.35L19.25 21.7V12.25H22.75V20.3L28.35 25.9L25.9 28.35Z" fill="#7C8EA6"/>
</g>
</svg>
