<svg width="40" height="35" viewBox="0 0 40 35" fill="none" xmlns="http://www.w3.org/2000/svg">
<g id="home">
<path id="Vector" d="M20.4422 6.15169C20.3259 6.05434 20.1711 6 20.0102 6C19.8492 6 19.6944 6.05434 19.5781 6.15169L5.19531 18.1741C5.13423 18.2252 5.08564 18.2866 5.05247 18.3547C5.0193 18.4227 5.00225 18.4959 5.00234 18.5699L5 29.8533C5 30.4334 5.26339 30.9898 5.73223 31.4001C6.20107 31.8103 6.83696 32.0408 7.5 32.0408H15.0078C15.3393 32.0408 15.6573 31.9255 15.8917 31.7204C16.1261 31.5153 16.2578 31.2371 16.2578 30.947V21.6501C16.2578 21.5051 16.3237 21.366 16.4409 21.2634C16.5581 21.1609 16.7171 21.1033 16.8828 21.1033H23.1328C23.2986 21.1033 23.4575 21.1609 23.5748 21.2634C23.692 21.366 23.7578 21.5051 23.7578 21.6501V30.947C23.7578 31.2371 23.8895 31.5153 24.1239 31.7204C24.3583 31.9255 24.6763 32.0408 25.0078 32.0408H32.5125C33.1755 32.0408 33.8114 31.8103 34.2803 31.4001C34.7491 30.9898 35.0125 30.4334 35.0125 29.8533V18.5699C35.0126 18.4959 34.9955 18.4227 34.9624 18.3547C34.9292 18.2866 34.8806 18.2252 34.8195 18.1741L20.4422 6.15169Z" fill="#7C8EA6"/>
<path id="Vector_2" d="M38.3524 16.6899L32.5086 11.7981V4.375C32.5086 4.08492 32.3769 3.80672 32.1425 3.6016C31.9081 3.39648 31.5901 3.28125 31.2586 3.28125H27.5086C27.1771 3.28125 26.8592 3.39648 26.6247 3.6016C26.3903 3.80672 26.2586 4.08492 26.2586 4.375V6.5625L21.7336 2.77676C21.3102 2.40215 20.6805 2.1875 20 2.1875C19.3219 2.1875 18.6938 2.40215 18.2703 2.77744L1.65315 16.6886C1.16722 17.0987 1.10628 17.7734 1.54847 18.2178C1.65951 18.3299 1.79547 18.4211 1.94808 18.4859C2.10068 18.5506 2.26675 18.5875 2.43616 18.5942C2.60557 18.601 2.77478 18.5776 2.9335 18.5253C3.09222 18.473 3.23713 18.3931 3.3594 18.2902L19.5703 4.73594C19.6867 4.63858 19.8414 4.58424 20.0024 4.58424C20.1633 4.58424 20.3181 4.63858 20.4344 4.73594L36.6469 18.2902C36.8857 18.4906 37.2056 18.6 37.5364 18.5944C37.8673 18.5887 38.182 18.4685 38.4118 18.2602C38.8914 17.8254 38.8516 17.1076 38.3524 16.6899Z" fill="#7C8EA6"/>
</g>
</svg>
