<svg width="42" height="40" viewBox="0 0 42 40" fill="none" xmlns="http://www.w3.org/2000/svg">
<path d="M22.0336 35.8867C21.4553 35.5977 20.8769 35.3047 20.2986 35.0156C18.9082 34.3164 17.5219 33.6172 16.1314 32.918C14.4457 32.0703 12.7559 31.2227 11.0701 30.3711C9.61816 29.6406 8.16211 28.9102 6.71015 28.1797C6.00468 27.8242 5.30332 27.457 4.58964 27.1133C4.58144 27.1094 4.56914 27.1016 4.56093 27.0977C4.90136 27.6602 5.23769 28.2227 5.57812 28.7852C5.57812 28.1992 5.57812 27.6172 5.57812 27.0313C5.57812 25.6367 5.57812 24.2383 5.57812 22.8438C5.57812 21.1563 5.57812 19.4688 5.57812 17.7774C5.57812 16.3125 5.57812 14.8477 5.57812 13.3789C5.57812 12.668 5.59043 11.957 5.57812 11.2461C5.57812 11.2383 5.57812 11.2266 5.57812 11.2188C4.54863 11.7813 3.51914 12.3438 2.49375 12.9063C3.07207 13.1992 3.65039 13.4883 4.22871 13.7813C5.61914 14.4805 7.00546 15.1797 8.39589 15.8789C10.0816 16.7266 11.7715 17.5781 13.4572 18.4258C14.9092 19.1563 16.3652 19.8906 17.8172 20.6211C18.5227 20.9766 19.224 21.3438 19.9377 21.6875C19.9459 21.6914 19.9582 21.6992 19.9664 21.7031C19.626 21.1406 19.2896 20.5781 18.9492 20.0156C18.9492 20.5977 18.9492 21.1836 18.9492 21.7656C18.9492 23.1602 18.9492 24.5547 18.9492 25.9492C18.9492 27.6367 18.9492 29.3242 18.9492 31.0117C18.9492 32.4766 18.9492 33.9414 18.9492 35.4063C18.9492 36.1172 18.941 36.8281 18.9492 37.5391C18.9492 37.5469 18.9492 37.5586 18.9492 37.5664C18.9492 38.0664 19.1789 38.5938 19.548 38.9492C19.9049 39.2891 20.4873 39.543 21 39.5195C21.5291 39.4961 22.0787 39.332 22.452 38.9492C22.8211 38.5664 23.0508 38.0977 23.0508 37.5664C23.0508 36.9844 23.0508 36.3984 23.0508 35.8164C23.0508 34.4219 23.0508 33.0274 23.0508 31.6328C23.0508 29.9453 23.0508 28.2578 23.0508 26.5703C23.0508 25.1055 23.0508 23.6406 23.0508 22.1758C23.0508 21.4649 23.059 20.7539 23.0508 20.043C23.0508 20.0352 23.0508 20.0234 23.0508 20.0156C23.0508 19.3516 22.6652 18.6484 22.0336 18.3281C21.4553 18.0352 20.8769 17.7461 20.2986 17.4531C18.9082 16.7539 17.5219 16.0547 16.1314 15.3555C14.4457 14.5078 12.7559 13.6563 11.0701 12.8086C9.61816 12.0781 8.16211 11.3438 6.71015 10.6133C6.00468 10.2578 5.29922 9.89454 4.58964 9.54688C4.58144 9.54298 4.56914 9.53517 4.56093 9.53126C3.90468 9.19923 3.14589 9.16798 2.48964 9.53126C1.86621 9.87892 1.47246 10.5274 1.47246 11.2188C1.47246 11.8047 1.47246 12.3867 1.47246 12.9727C1.47246 14.3672 1.47246 15.7656 1.47246 17.1602C1.47246 18.8477 1.47246 20.5352 1.47246 22.2266C1.47246 23.6914 1.47246 25.1563 1.47246 26.625C1.47246 27.3359 1.46425 28.0469 1.47246 28.7578C1.47246 28.7656 1.47246 28.7774 1.47246 28.7852C1.47246 29.4492 1.858 30.1563 2.48964 30.4727C3.06796 30.7617 3.64629 31.0547 4.22461 31.3438C5.61504 32.043 7.00136 32.7422 8.39179 33.4414C10.0775 34.2891 11.7674 35.1367 13.4531 35.9883C14.9051 36.7188 16.3611 37.4492 17.8131 38.1797C18.5186 38.5352 19.224 38.8984 19.9336 39.2461C19.9418 39.25 19.9541 39.2578 19.9623 39.2617C20.4463 39.5039 21.0082 39.5977 21.5414 39.457C22.0172 39.332 22.534 38.9805 22.7678 38.5586C23.018 38.1055 23.1451 37.5547 22.9728 37.0547C22.817 36.582 22.5094 36.125 22.0336 35.8867Z" fill="#7C8EA6"/>
<path d="M37.4432 27.0977C36.8648 27.3867 36.2865 27.6797 35.7082 27.9688C34.3178 28.668 32.9314 29.3672 31.541 30.0664C29.8553 30.9141 28.1654 31.7617 26.4797 32.6133C25.0277 33.3438 23.5717 34.0742 22.1197 34.8047C21.4142 35.1602 20.7006 35.5039 19.9992 35.8711C19.991 35.875 19.9787 35.8828 19.9705 35.8867C21 36.4492 22.0295 37.0117 23.0549 37.5742C23.0549 36.9922 23.0549 36.4063 23.0549 35.8242C23.0549 34.4297 23.0549 33.0352 23.0549 31.6406C23.0549 29.9531 23.0549 28.2656 23.0549 26.5781C23.0549 25.1133 23.0549 23.6484 23.0549 22.1836C23.0549 21.4727 23.0672 20.7617 23.0549 20.0508C23.0549 20.043 23.0549 20.0313 23.0549 20.0234C22.7144 20.5859 22.3781 21.1484 22.0377 21.7109C22.616 21.418 23.1943 21.1289 23.7726 20.8359C25.1631 20.1367 26.5494 19.4375 27.9398 18.7383C29.6256 17.8906 31.3154 17.0391 33.0012 16.1914C34.4531 15.4609 35.9092 14.7266 37.3611 13.9961C38.0666 13.6406 38.7803 13.293 39.4816 12.9297C39.4898 12.9258 39.5021 12.918 39.5103 12.9141C38.4808 12.3516 37.4514 11.7891 36.426 11.2266C36.426 11.8125 36.426 12.3945 36.426 12.9805C36.426 14.375 36.426 15.7734 36.426 17.168C36.426 18.8555 36.426 20.543 36.426 22.2344C36.426 23.6992 36.426 25.1641 36.426 26.6328C36.426 27.3438 36.4178 28.0547 36.426 28.7656C36.426 28.7734 36.426 28.7852 36.426 28.793C36.426 29.293 36.6557 29.8203 37.0248 30.1758C37.3816 30.5156 37.964 30.7695 38.4767 30.7461C39.0058 30.7227 39.5555 30.5586 39.9287 30.1758C40.2978 29.793 40.5275 29.3242 40.5275 28.793C40.5275 28.207 40.5275 27.625 40.5275 27.0391C40.5275 25.6445 40.5275 24.2461 40.5275 22.8516C40.5275 21.1641 40.5275 19.4766 40.5275 17.7852C40.5275 16.3203 40.5275 14.8555 40.5275 13.3867C40.5275 12.6758 40.5357 11.9649 40.5275 11.2539C40.5275 11.2461 40.5275 11.2344 40.5275 11.2266C40.5275 10.5391 40.1338 9.88673 39.5103 9.53907C38.8582 9.17579 38.0953 9.20704 37.439 9.53907C36.8607 9.83204 36.2824 10.1211 35.7041 10.4141C34.3137 11.1133 32.9273 11.8125 31.5369 12.5117C29.8512 13.3594 28.1613 14.2109 26.4756 15.0586C25.0236 15.7891 23.5676 16.5234 22.1156 17.2539C21.4101 17.6094 20.6924 17.9531 19.9951 18.3203C19.9869 18.3242 19.9746 18.332 19.9664 18.3359C19.3347 18.6524 18.9492 19.3555 18.9492 20.0234C18.9492 20.6055 18.9492 21.1914 18.9492 21.7734C18.9492 23.168 18.9492 24.5625 18.9492 25.957C18.9492 27.6445 18.9492 29.332 18.9492 31.0195C18.9492 32.4844 18.9492 33.9492 18.9492 35.4141C18.9492 36.125 18.941 36.8359 18.9492 37.5469C18.9492 37.5547 18.9492 37.5664 18.9492 37.5742C18.9492 38.2617 19.343 38.9141 19.9664 39.2617C20.6185 39.625 21.3814 39.5899 22.0377 39.2617C22.616 38.9727 23.1943 38.6797 23.7726 38.3906C25.1631 37.6914 26.5494 36.9922 27.9398 36.293C29.6256 35.4453 31.3154 34.5977 33.0012 33.7461C34.4531 33.0156 35.9092 32.2852 37.3611 31.5547C38.0666 31.1992 38.7844 30.8555 39.4816 30.4883C39.4898 30.4844 39.5021 30.4766 39.5103 30.4727C39.9533 30.25 40.3224 29.7578 40.4537 29.3047C40.589 28.8359 40.5275 28.2149 40.2486 27.8008C39.6252 26.8789 38.4603 26.5859 37.4432 27.0977Z" fill="#7C8EA6"/>
<path d="M37.4432 9.53517C36.8649 9.82814 36.2865 10.1172 35.7082 10.4102C34.3178 11.1094 32.9315 11.8086 31.541 12.5078C29.8553 13.3555 28.1654 14.207 26.4797 15.0547C25.0277 15.7852 23.5717 16.5195 22.1197 17.25C21.4143 17.6055 20.7006 17.9531 19.9992 18.3164C19.991 18.3203 19.9787 18.3281 19.9705 18.332C20.6596 18.332 21.3486 18.332 22.0418 18.332C21.4635 18.0391 20.8852 17.75 20.3068 17.457C18.9164 16.7578 17.5301 16.0586 16.1397 15.3594C14.4539 14.5117 12.7641 13.6602 11.0783 12.8125C9.62638 12.082 8.17032 11.3477 6.71837 10.6172C6.0129 10.2617 5.31154 9.89454 4.59786 9.55079C4.58966 9.54689 4.57736 9.53907 4.56915 9.53517C4.56915 10.6602 4.56915 11.7852 4.56915 12.9063C5.14747 12.6172 5.72579 12.3242 6.30411 12.0352C7.69454 11.3359 9.08087 10.6367 10.4713 9.93751C12.157 9.08985 13.8469 8.23829 15.5326 7.39064C16.9846 6.66017 18.4406 5.9297 19.8926 5.19532C20.5981 4.83986 21.3117 4.4922 22.0131 4.12892C22.0213 4.12501 22.0336 4.1172 22.0418 4.11329C21.3527 4.11329 20.6637 4.11329 19.9705 4.11329C20.5488 4.40236 21.1272 4.69532 21.7055 4.98439C23.0959 5.6836 24.4822 6.38282 25.8727 7.08204C27.5584 7.9297 29.2483 8.78126 30.934 9.62892C32.3859 10.3594 33.842 11.0899 35.294 11.8242C35.9994 12.1797 36.7049 12.543 37.4145 12.8906C37.4227 12.8945 37.435 12.9024 37.4432 12.9063C37.9272 13.1484 38.4891 13.2422 39.0223 13.1016C39.4981 12.9766 40.0149 12.625 40.2486 12.2031C40.4988 11.75 40.626 11.1992 40.4537 10.6992C40.2938 10.2266 39.9861 9.76954 39.5104 9.53126C38.9238 9.23829 38.3373 8.94142 37.7508 8.64845C36.3563 7.94923 34.9658 7.24611 33.5713 6.54689C31.8774 5.69532 30.1834 4.84376 28.4895 3.9922C27.0416 3.26173 25.5938 2.53517 24.1459 1.8047C23.4486 1.45314 22.7555 1.08986 22.0541 0.753918C21.6276 0.546887 21.2051 0.449231 20.7252 0.511731C20.4422 0.546887 20.1961 0.628918 19.9377 0.757824C19.8598 0.796887 19.7859 0.835949 19.708 0.871106C19.3471 1.05079 18.9861 1.23439 18.6252 1.41407C17.3086 2.07814 15.9879 2.7422 14.6713 3.40236C12.9938 4.24611 11.3121 5.09376 9.63458 5.93751C8.117 6.69923 6.60353 7.46486 5.08595 8.22657C4.25743 8.64454 3.42892 9.06251 2.6004 9.47657C2.56349 9.49611 2.52247 9.51564 2.48556 9.53517C1.14845 10.207 1.14845 12.2344 2.48556 12.9063C3.07208 13.2031 3.65861 13.4961 4.24513 13.793C5.63966 14.4961 7.03009 15.1953 8.42462 15.8984C10.1186 16.75 11.8125 17.6055 13.5065 18.457C14.9543 19.1875 16.4022 19.9141 17.85 20.6445C18.5473 20.9961 19.2404 21.3594 19.9418 21.6992C20.3684 21.9063 20.7908 22.0039 21.2707 21.9414C21.5537 21.9063 21.7998 21.8242 22.0582 21.6953C22.1361 21.6563 22.21 21.6172 22.2879 21.582C22.6488 21.4024 23.0098 21.2188 23.3707 21.0391C24.6873 20.375 26.008 19.7109 27.3246 19.0469C29.0022 18.2031 30.6838 17.3555 32.3613 16.5117C33.8789 15.75 35.3924 14.9844 36.91 14.2227C37.7385 13.8047 38.567 13.3867 39.3955 12.9688C39.4324 12.9492 39.4734 12.9297 39.5104 12.9102C39.9533 12.6875 40.3225 12.1953 40.4537 11.7422C40.5891 11.2734 40.5275 10.6524 40.2486 10.2383C39.6252 9.31642 38.4604 9.02345 37.4432 9.53517Z" fill="#7C8EA6"/>
<path d="M13.2972 17.3125C13.8756 17.0196 14.4539 16.7305 15.0322 16.4375C16.4226 15.7383 17.809 15.0391 19.1994 14.3399C20.8851 13.4922 22.575 12.6407 24.2607 11.793C25.7127 11.0625 27.1687 10.3282 28.6207 9.5977C29.3261 9.24224 30.0439 8.89849 30.7412 8.5313C30.7494 8.52739 30.7617 8.51958 30.7699 8.51567C31.2129 8.29302 31.582 7.80083 31.7133 7.3477C31.8486 6.87895 31.7871 6.25786 31.5082 5.8438C30.8847 4.92192 29.7199 4.63286 28.7027 5.14458C28.1244 5.43755 27.5461 5.72661 26.9677 6.01958C25.5773 6.7188 24.191 7.41802 22.8006 8.11724C21.1148 8.96489 19.425 9.81645 17.7392 10.6641C16.2873 11.3946 14.8312 12.129 13.3793 12.8594C12.6738 13.2149 11.956 13.5586 11.2588 13.9258C11.2506 13.9297 11.2383 13.9375 11.2301 13.9415C10.7871 14.1641 10.4179 14.6563 10.2867 15.1094C10.1513 15.5782 10.2129 16.1993 10.4918 16.6133C11.1111 17.5313 12.2801 17.8243 13.2972 17.3125Z" fill="#7C8EA6"/>
</svg>
